<svg width="40" height="40" viewBox="0 0 40 40" fill="none" xmlns="http://www.w3.org/2000/svg">
<path d="M23.3333 5.33464V3.66797H8.33333V30.3346H5V33.668H20.8333C20.8333 33.5013 20.8333 33.3346 20.8333 33.0013V27.0013C20.8333 25.8346 21.5 24.668 22.3333 24.0013V23.3346C22.3333 22.0013 22.6667 21.0013 23.3333 20.0013V8.66797H28.3333V17.5013C29.1667 17.5013 30 17.668 30.8333 18.168C31.1667 18.3346 31.5 18.5013 31.6667 18.668V5.33464H23.3333ZM20 20.3346H16.6667V17.0013H20V20.3346Z" fill="black"/>
<path d="M32.3335 25.668C32.1668 25.668 32.0002 25.668 31.8335 25.668V23.3346C31.8335 22.8346 31.6668 22.5013 31.5002 22.0013C31.1668 21.168 30.5002 20.5013 29.6668 20.0013C29.1668 19.8346 28.6668 19.668 28.1668 19.668H28.0002C26.0002 19.668 24.3335 21.3346 24.3335 23.3346V25.5013C23.8335 25.5013 23.5002 25.668 23.1668 26.0013C23.0002 26.168 22.8335 26.5013 22.8335 26.8346V32.8346C22.8335 33.0013 22.8335 33.3346 23.0002 33.5013C23.1668 34.0013 23.8335 34.3346 24.3335 34.3346H31.8335C32.5002 34.3346 33.0002 34.0013 33.1668 33.5013C33.3335 33.5013 33.3335 33.3346 33.3335 33.0013V27.0013C33.3335 26.5013 33.0002 25.8346 32.3335 25.668ZM30.5002 25.668H26.0002V23.3346C26.0002 23.168 26.0002 23.168 26.0002 23.0013C26.1668 21.8346 27.1668 21.168 28.1668 21.168C28.1668 21.168 28.1668 21.168 28.3335 21.168C28.3335 21.168 28.3335 21.168 28.5002 21.168C29.6668 21.3346 30.5002 22.168 30.5002 23.3346V25.668Z" fill="black"/>
</svg>
