<svg width="40" height="40" viewBox="0 0 40 40" fill="none" xmlns="http://www.w3.org/2000/svg">
<path d="M23.3333 5.16667V3.5H8.33333V30.1667H5V33.5H16.8333V32.6667C16.8333 30.6667 18.6667 29.5 20.5 28.8333C20 28.1667 19.6667 27.3333 19.6667 26.5C19.6667 24.3333 21.3333 22.6667 23.3333 22.5V8.5H28.3333V22.6667C28.6667 22.5 29.1667 22.5 29.5 22.5C30.3333 22.5 31 22.6667 31.6667 23.1667V5.16667H23.3333ZM20 20.1667H16.6667V16.8333H20V20.1667Z" fill="black"/>
<path d="M31.6665 26V27.3333C31.6665 27.1667 31.8332 26.8333 31.8332 26.6667C31.8332 26.5 31.6665 26.1667 31.6665 26Z" fill="black"/>
<path d="M26 26.6667C26 27.8333 25 28.8333 23.8333 28.8333C23.6667 28.8333 23.5 28.8333 23.3333 28.8333C22.3333 28.6667 21.5 27.8333 21.5 26.6667C21.5 25.6667 22.3333 24.6667 23.3333 24.5C23.5 24.5 23.6667 24.5 23.8333 24.5C25 24.5 26 25.5 26 26.6667Z" fill="black"/>
<path d="M31.6665 26V27.3333C31.6665 27.1667 31.8332 26.8333 31.8332 26.6667C31.8332 26.5 31.6665 26.1667 31.6665 26Z" fill="black"/>
<path d="M28.8337 32.832V34.6654H18.667V32.832C18.667 31.332 21.667 30.4987 23.3337 30.332C23.5003 30.332 23.667 30.332 23.8337 30.332C25.167 30.332 27.3337 30.832 28.5003 31.832C28.667 32.1654 28.8337 32.4987 28.8337 32.832Z" fill="black"/>
<path d="M34.6663 32.832V34.6654H30.333V32.832C30.333 31.832 29.6663 30.9987 28.833 30.332C29.1663 30.332 29.333 30.332 29.4997 30.332C31.333 30.332 34.6663 31.1654 34.6663 32.832Z" fill="black"/>
<path d="M31.6668 26.0026V27.3359C31.3335 28.1693 30.5002 28.8359 29.6668 28.8359C29.1668 28.8359 28.8335 28.6693 28.3335 28.3359C27.8335 28.0026 27.3335 27.3359 27.3335 26.5026C27.3335 25.8359 27.6668 25.1693 28.3335 24.6693C28.6668 24.5026 29.1668 24.3359 29.6668 24.3359C30.5002 24.5026 31.3335 25.1693 31.6668 26.0026Z" fill="black"/>
</svg>
