<svg width="40" height="40" viewBox="0 0 40 40" fill="none" xmlns="http://www.w3.org/2000/svg">
<path d="M23.3333 5.33464V3.66797H8.33333V30.3346H5V33.668H21.8333C21.1667 33.168 20.6667 32.5013 20.6667 31.668V23.5013C20.6667 22.168 21.6667 21.168 23 21.168H23.3333V8.66797H28.3333V21.168H31.6667V5.33464H23.3333ZM20 20.3346H16.6667V17.0013H20V20.3346Z" fill="black"/>
<path d="M34.6673 23.6667C34.6673 23 34.1673 22.5 33.5007 22.5H23.5007H23.334C22.834 22.6667 22.334 23.1667 22.334 23.6667V31.1667C22.334 31.8333 22.834 32.3333 23.334 32.3333H23.5007H32.1673L33.5007 33.6667L34.6673 34.8333V30.3333V23.6667ZM32.1673 29.8333H24.6673V28.5H32.1673V29.8333ZM32.1673 28H24.6673V26.6667H32.1673V28ZM32.1673 26.1667H24.6673V24.8333H32.1673V26.1667Z" fill="black"/>
</svg>
