<svg width="113" height="18" viewBox="0 0 113 18" fill="none" xmlns="http://www.w3.org/2000/svg">
<path d="M9.17568 11.5543H1.24177V13.3691C1.24177 14.831 1.84149 16.6458 4.58608 16.6458C6.57926 16.6458 7.80338 15.5619 7.90569 13.6971C7.90569 13.3691 8.20202 13.0411 8.5301 13.0411C8.82996 13.0411 9.17921 13.3192 9.17921 13.6971C8.95343 16.2429 7.20719 17.9579 4.5896 17.9579C1.72154 17.9579 0 16.218 0 13.3691V9.10831C0 6.33433 1.77093 4.54443 4.5896 4.54443C7.43297 4.54443 9.17921 6.28085 9.17921 9.10831V11.5543H9.17568ZM7.92686 9.10831C7.92686 7.64644 7.27775 5.82802 4.58608 5.82802C2.49059 5.82802 1.24177 7.0403 1.24177 9.10831V10.2421H7.92686V9.10831Z" fill="#13110C"/>
<path d="M19.0534 5.80409C17.674 5.80409 15.9419 6.13569 15.9419 8.06464C15.9419 8.74922 16.4675 9.48372 17.3953 9.76539L21.4099 10.9064C22.9163 11.3628 23.8441 12.5786 23.8441 14.176C23.8441 17.0462 21.738 17.9554 19.1028 17.9554C16.3688 17.9554 14.4602 16.6861 14.4355 14.176C14.4355 13.8479 14.7354 13.5449 15.0882 13.5449C15.4127 13.5449 15.7161 13.8515 15.7161 14.176C15.7408 16.0015 17.1978 16.6112 19.1028 16.6112C20.6585 16.6112 22.567 16.383 22.567 14.176C22.567 13.3416 21.9391 12.4788 21.0113 12.1222L16.9932 10.9563C15.5644 10.5748 14.686 9.48372 14.686 8.06464C14.686 5.47606 16.7215 4.53833 19.1028 4.53833C21.8615 4.53833 23.6924 5.75774 23.7453 8.29283C23.7453 8.64582 23.4454 8.90254 23.0926 8.90254C22.7399 8.90254 22.4894 8.64582 22.4894 8.29283C22.44 6.56712 21.036 5.80409 19.0534 5.80409Z" fill="#13110C"/>
<path d="M37.1175 8.80002C37.0187 7.41303 36.3449 5.82637 33.8014 5.82637C31.7059 5.82637 30.4571 7.03865 30.4571 9.10665V13.3675C30.4571 14.8329 31.0568 16.6477 33.8014 16.6477C35.7981 16.6477 37.0222 15.5638 37.1175 13.6955C37.1175 13.3675 37.4209 13.0394 37.7419 13.0394C38.0911 13.0394 38.3663 13.3924 38.391 13.6955C38.1688 16.2163 36.419 17.9563 33.8014 17.9563C30.9298 17.9563 29.1836 16.2163 29.1836 13.3675V9.10309C29.1836 6.32911 30.9792 4.53564 33.8014 4.53564C36.4966 4.53564 38.2922 6.17579 38.391 8.77506C38.391 9.10309 38.1194 9.40616 37.7207 9.40616C37.368 9.40616 37.1175 9.18153 37.1175 8.80002Z" fill="#13110C"/>
<path d="M61.7696 8.97967C61.7696 7.55702 61.1663 5.79209 58.5417 5.79209C56.6508 5.79209 55.2468 7.06498 55.2468 8.92975V17.3444C55.2468 17.7116 54.9539 17.9541 54.64 17.9541C54.2766 17.9541 54.0332 17.7081 54.0332 17.3444V4.98628C54.0332 4.64399 54.2766 4.34448 54.64 4.34448C54.9539 4.34448 55.2468 4.64042 55.2468 4.98628V6.18786C55.7794 5.10394 57.4763 4.54415 58.5417 4.54415C61.3074 4.54415 62.9796 6.23421 62.9796 8.98323V17.348C62.9796 17.7152 62.6903 17.9577 62.3481 17.9577C62.013 17.9577 61.766 17.7116 61.766 17.348V8.97967H61.7696Z" fill="#E7393A"/>
<path d="M72.067 5.73693V13.738C72.067 15.8737 72.8113 16.6974 74.3036 16.6974C75.7676 16.6974 76.6354 16.0734 76.7095 14.2407C76.7095 13.9376 77.0058 13.6381 77.3304 13.6381C77.6303 13.6381 77.9266 13.9662 77.9266 14.2657C77.7537 16.7223 76.4873 17.9524 74.3036 17.9524C72.0917 17.9524 70.8252 16.5975 70.8252 13.8129V5.73693H68.4934C68.1441 5.73693 67.9219 5.48735 67.9219 5.13436C67.9219 4.83129 68.1441 4.53178 68.4934 4.53178H70.8252V0.627533C70.8252 0.278111 71.0757 0 71.4214 0C71.7671 0 72.0705 0.278111 72.0705 0.627533V4.53535H76.205C76.5261 4.53535 76.8259 4.83485 76.8259 5.13792C76.8259 5.48735 76.5261 5.7405 76.205 5.7405H72.067V5.73693Z" fill="#13110C"/>
<path d="M91.6896 11.4305H83.8898V13.4415C83.8898 14.8784 84.4789 16.6611 87.1776 16.6611C89.1426 16.6611 90.342 15.595 90.4408 13.7624C90.4408 13.4415 90.7371 13.117 91.0546 13.117C91.3474 13.117 91.6896 13.3915 91.6896 13.7624C91.4709 16.2654 89.7529 17.9518 87.1741 17.9518C84.3519 17.9518 82.6621 16.2404 82.6621 13.4415V9.02733C82.6621 6.29614 84.4013 4.53833 87.1741 4.53833C89.9751 4.53833 91.6896 6.24622 91.6896 9.02733V11.4305ZM90.4619 9.02733C90.4619 7.58686 89.8234 5.80053 87.1741 5.80053C85.1174 5.80053 83.8862 6.99141 83.8862 9.02733V10.1433H90.4619V9.02733Z" fill="#13110C"/>
<path d="M46.0654 4.50464C45.702 4.50464 45.4551 4.80414 45.4551 5.15V17.3156C45.4551 17.6614 45.6985 17.9574 46.0654 17.9574C46.3829 17.9574 46.6757 17.6614 46.6757 17.3156V5.15C46.6757 4.80414 46.3829 4.50464 46.0654 4.50464Z" fill="#E7393A"/>
<path d="M111.525 7.475C110.767 7.475 110.156 6.8546 110.156 6.08801C110.156 5.32143 110.767 4.70459 111.525 4.70459C112.283 4.70459 112.89 5.32143 112.89 6.08801C112.89 6.85104 112.283 7.475 111.525 7.475ZM111.525 4.95061C110.915 4.95061 110.424 5.46761 110.424 6.08445C110.424 6.70485 110.915 7.21829 111.525 7.21829C112.128 7.21829 112.626 6.70485 112.626 6.08445C112.626 5.46761 112.128 4.95061 111.525 4.95061ZM111.716 6.27342L112.033 6.89382H111.747L111.444 6.28768H111.349V6.89382H111.105V5.31073H111.589C111.955 5.31073 112.026 5.60667 112.026 5.74929V5.84556C112.026 5.96322 111.966 6.19141 111.716 6.27342ZM111.772 5.76355C111.772 5.59597 111.645 5.56745 111.589 5.56745H111.349V6.04166H111.592C111.645 6.04166 111.772 6.00601 111.772 5.84556V5.76355Z" fill="#13110C"/>
<path d="M102.684 4.54C101.703 4.54 100.67 4.94291 100.028 5.60966V4.99282C100.028 4.6434 99.7314 4.34033 99.4068 4.34033C99.0399 4.34033 98.793 4.6434 98.793 4.99282V17.3082C98.793 17.654 99.0399 17.9571 99.4068 17.9571C99.7314 17.9571 100.028 17.654 100.028 17.3082V8.11979C100.225 6.57948 101.4 5.78794 102.684 5.78794C104.138 5.78794 105.224 6.4119 105.319 8.23032C105.319 8.55835 105.619 8.82933 105.937 8.82933C106.254 8.82933 106.529 8.55835 106.529 8.23032C106.459 5.63818 104.878 4.54 102.684 4.54Z" fill="#13110C"/>
</svg>
