<svg width="150" height="41" viewBox="0 0 150 41" fill="none" xmlns="http://www.w3.org/2000/svg">
<g clip-path="url(#clip0)">
<path d="M46.2841 20.8405H38.3502V22.6554C38.3502 24.1172 38.9499 25.9321 41.6945 25.9321C43.6877 25.9321 44.9118 24.8482 45.0141 22.9834C45.0141 22.6554 45.3104 22.3273 45.6385 22.3273C45.9384 22.3273 46.2876 22.6055 46.2876 22.9834C46.0618 25.5292 44.3156 27.2442 41.698 27.2442C38.8299 27.2442 37.1084 25.5042 37.1084 22.6554V18.3946C37.1084 15.6206 38.8793 13.8307 41.698 13.8307C44.5414 13.8307 46.2876 15.5671 46.2876 18.3946V20.8405H46.2841ZM45.0353 18.3946C45.0353 16.9327 44.3861 15.1143 41.6945 15.1143C39.599 15.1143 38.3502 16.3266 38.3502 18.3946V19.5284H45.0353V18.3946Z" fill="#13110C"/>
<path d="M56.1618 15.0932C54.7824 15.0932 53.0503 15.4247 53.0503 17.3537C53.0503 18.0383 53.5759 18.7728 54.5037 19.0545L58.5183 20.1954C60.0247 20.6518 60.9525 21.8677 60.9525 23.465C60.9525 26.3353 58.8464 27.2445 56.2112 27.2445C53.4772 27.2445 51.5686 25.9751 51.5439 23.465C51.5439 23.137 51.8438 22.8339 52.1966 22.8339C52.5211 22.8339 52.8245 23.1406 52.8245 23.465C52.8492 25.2906 54.3062 25.9003 56.2112 25.9003C57.7669 25.9003 59.6754 25.6721 59.6754 23.465C59.6754 22.6307 59.0475 21.7678 58.1197 21.4113L54.1016 20.2453C52.6728 19.8638 51.7944 18.7728 51.7944 17.3537C51.7944 14.7651 53.8299 13.8274 56.2112 13.8274C58.9699 13.8274 60.8008 15.0468 60.8537 17.5819C60.8537 17.9349 60.5538 18.1916 60.201 18.1916C59.8483 18.1916 59.5978 17.9349 59.5978 17.5819C59.5484 15.8562 58.1444 15.0932 56.1618 15.0932Z" fill="#13110C"/>
<path d="M74.2278 18.0882C74.1291 16.7012 73.4553 15.1146 70.9118 15.1146C68.8163 15.1146 67.5675 16.3269 67.5675 18.3949V22.6557C67.5675 24.1211 68.1672 25.936 70.9118 25.936C72.9085 25.936 74.1326 24.852 74.2278 22.9837C74.2278 22.6557 74.5312 22.3276 74.8523 22.3276C75.2015 22.3276 75.4767 22.6806 75.5014 22.9837C75.2791 25.5045 73.5294 27.2445 70.9118 27.2445C68.0402 27.2445 66.2939 25.5045 66.2939 22.6557V18.3913C66.2939 15.6173 68.0896 13.8239 70.9118 13.8239C73.607 13.8239 75.4026 15.464 75.5014 18.0633C75.5014 18.3913 75.2297 18.6944 74.8311 18.6944C74.4783 18.6944 74.2278 18.4697 74.2278 18.0882Z" fill="#13110C"/>
<path d="M98.8799 18.2664C98.8799 16.8438 98.2767 15.0788 95.652 15.0788C93.7612 15.0788 92.3571 16.3517 92.3571 18.2165V26.6311C92.3571 26.9984 92.0643 27.2408 91.7503 27.2408C91.387 27.2408 91.1436 26.9948 91.1436 26.6311V14.273C91.1436 13.9307 91.387 13.6312 91.7503 13.6312C92.0643 13.6312 92.3571 13.9272 92.3571 14.273V15.4746C92.8898 14.3907 94.5866 13.8309 95.652 13.8309C98.4178 13.8309 100.09 15.521 100.09 18.27V26.6347C100.09 27.002 99.8007 27.2444 99.4585 27.2444C99.1233 27.2444 98.8764 26.9984 98.8764 26.6347V18.2664H98.8799Z" fill="#E7393A"/>
<path d="M109.176 15.0253V23.0263C109.176 25.1621 109.921 25.9857 111.413 25.9857C112.877 25.9857 113.745 25.3617 113.819 23.529C113.819 23.226 114.115 22.9265 114.44 22.9265C114.74 22.9265 115.036 23.2545 115.036 23.554C114.863 26.0107 113.597 27.2408 111.413 27.2408C109.201 27.2408 107.935 25.8859 107.935 23.1012V15.0253H105.603C105.253 15.0253 105.031 14.7757 105.031 14.4227C105.031 14.1196 105.253 13.8201 105.603 13.8201H107.935V9.91586C107.935 9.56644 108.185 9.28833 108.531 9.28833C108.876 9.28833 109.18 9.56644 109.18 9.91586V13.8237H113.314C113.635 13.8237 113.935 14.1232 113.935 14.4263C113.935 14.7757 113.635 15.0288 113.314 15.0288H109.176V15.0253Z" fill="#13110C"/>
<path d="M128.798 20.7196H120.998V22.7305C120.998 24.1674 121.587 25.9502 124.286 25.9502C126.251 25.9502 127.45 24.8841 127.549 23.0514C127.549 22.7305 127.846 22.4061 128.163 22.4061C128.456 22.4061 128.798 22.6806 128.798 23.0514C128.579 25.5544 126.861 27.2409 124.282 27.2409C121.46 27.2409 119.771 25.5295 119.771 22.7305V18.3164C119.771 15.5852 121.51 13.8274 124.282 13.8274C127.084 13.8274 128.798 15.5353 128.798 18.3164V20.7196ZM127.57 18.3164C127.57 16.8759 126.932 15.0896 124.282 15.0896C122.226 15.0896 120.995 16.2805 120.995 18.3164V19.4324H127.57V18.3164Z" fill="#13110C"/>
<path d="M83.1738 13.7915C82.8104 13.7915 82.5635 14.091 82.5635 14.4369V26.6024C82.5635 26.9483 82.8069 27.2442 83.1738 27.2442C83.4913 27.2442 83.7841 26.9483 83.7841 26.6024V14.4369C83.7841 14.091 83.4913 13.7915 83.1738 13.7915Z" fill="#E7393A"/>
<path d="M148.635 16.7619C147.877 16.7619 147.267 16.1415 147.267 15.3749C147.267 14.6083 147.877 13.9915 148.635 13.9915C149.394 13.9915 150.001 14.6083 150.001 15.3749C150.001 16.1379 149.394 16.7619 148.635 16.7619ZM148.635 14.2375C148.025 14.2375 147.535 14.7545 147.535 15.3713C147.535 15.9917 148.025 16.5052 148.635 16.5052C149.239 16.5052 149.736 15.9917 149.736 15.3713C149.736 14.7545 149.239 14.2375 148.635 14.2375ZM148.826 15.5603L149.143 16.1807H148.858L148.554 15.5745H148.459V16.1807H148.216V14.5976H148.699C149.066 14.5976 149.136 14.8935 149.136 15.0362V15.1324C149.136 15.2501 149.076 15.4783 148.826 15.5603ZM148.882 15.0504C148.882 14.8828 148.755 14.8543 148.699 14.8543H148.459V15.3285H148.702C148.755 15.3285 148.882 15.2929 148.882 15.1324V15.0504Z" fill="#13110C"/>
<path d="M139.794 13.8271C138.814 13.8271 137.78 14.23 137.138 14.8968V14.2799C137.138 13.9305 136.842 13.6274 136.517 13.6274C136.15 13.6274 135.903 13.9305 135.903 14.2799V26.5953C135.903 26.9411 136.15 27.2442 136.517 27.2442C136.842 27.2442 137.138 26.9411 137.138 26.5953V17.4069C137.336 15.8666 138.51 15.075 139.794 15.075C141.248 15.075 142.334 15.699 142.43 17.5174C142.43 17.8455 142.73 18.1164 143.047 18.1164C143.365 18.1164 143.64 17.8455 143.64 17.5174C143.569 14.9253 141.989 13.8271 139.794 13.8271Z" fill="#13110C"/>
<path d="M23.9746 20.4203C23.9746 20.1992 23.8547 19.9924 23.6642 19.8855L13.2502 13.9025L23.6677 7.83042C23.8547 7.71989 23.9746 7.51309 23.9746 7.29203C23.9746 7.07097 23.8582 6.86417 23.6677 6.75363L12.3189 0.0825323C12.1284 -0.027999 11.892 -0.027999 11.7016 0.0825323L0.306914 6.75007C0.261054 6.77859 0.215193 6.81068 0.179915 6.8499C0.165804 6.86773 0.151693 6.88556 0.137582 6.90339C0.119944 6.92835 0.098777 6.94974 0.084666 6.9747C0.0811383 6.98183 0.0776105 6.98896 0.0740828 6.99609C0.028222 7.09236 0 7.18863 0 7.29203V20.4239V33.6948C0 33.6983 0 33.6983 0 33.7019C0 33.7732 0.0176388 33.8445 0.042333 33.9087C0.0493885 33.9265 0.056444 33.9443 0.0634995 33.9622C0.0952493 34.0264 0.130527 34.0834 0.176388 34.1333C0.179915 34.1369 0.183443 34.1369 0.183443 34.1405C0.218721 34.1761 0.257526 34.2082 0.303387 34.2332L11.698 40.9185C11.7933 40.9756 11.9026 41.0005 12.0085 41.0005C12.1143 41.0005 12.2237 40.972 12.3189 40.9185L23.6677 34.2296C23.8582 34.1191 23.9746 33.9123 23.9746 33.6912C23.9746 33.4701 23.8547 33.2633 23.6642 33.1528L13.2397 27.152L23.6712 20.9587C23.8582 20.8446 23.9746 20.6414 23.9746 20.4203ZM7.93039 12.2517L11.3946 14.2626V26.0752L1.23119 20.0673V8.36169L7.93039 12.2517ZM1.23119 21.5078L10.7808 27.152L1.23119 32.6287V21.5078ZM12.012 1.34116L22.1331 7.28846L12.012 13.1894L1.84501 7.28846L12.012 1.34116ZM12.012 39.6635L1.84854 33.6983L12.0085 27.8723L22.1261 33.6983L12.012 39.6635ZM12.6258 26.0717V14.9722L22.1296 20.431L12.6258 26.0717Z" fill="#E7393A"/>
</g>
<defs>
<clipPath id="clip0">
<rect width="150" height="41" fill="white"/>
</clipPath>
</defs>
</svg>
