<svg width="40" height="68" viewBox="0 0 40 68" fill="none" xmlns="http://www.w3.org/2000/svg">
<path fill-rule="evenodd" clip-rule="evenodd" d="M19.6565 0.102578C19.895 -0.0344445 20.1875 -0.0341757 20.4257 0.103285L39.6097 11.1743C39.8509 11.3135 39.9997 11.5721 39.9996 11.8521C39.9996 12.1321 39.8508 12.3907 39.6096 12.5299L20.4256 23.597C20.1875 23.7344 19.895 23.7346 19.6566 23.5977L0.39122 12.5306C0.149355 12.3916 2.1162e-05 12.1327 2.24894e-09 11.8521C-2.11575e-05 11.5716 0.149274 11.3126 0.391118 11.1736L19.6565 0.102578ZM2.33992 11.8519L20.0397 22.0197L37.6647 11.8519L20.0397 1.68061L2.33992 11.8519Z" fill="#EF4545"/>
<path fill-rule="evenodd" clip-rule="evenodd" d="M19.368 22.5311C19.5808 22.1568 20.0544 22.0271 20.4259 22.2415L39.6099 33.3125C39.851 33.4517 39.9998 33.7103 39.9998 33.9903C39.9998 34.2703 39.851 34.5288 39.6099 34.668L20.4259 45.739C20.1877 45.8765 19.8951 45.8768 19.6567 45.7397L0.391251 34.6687C0.0193919 34.455 -0.110139 33.978 0.101935 33.6033C0.314009 33.2286 0.78738 33.0981 1.15924 33.3118L20.0398 44.1617L37.665 33.9903L19.6554 23.597C19.284 23.3826 19.1553 22.9054 19.368 22.5311Z" fill="#EF4545"/>
<path fill-rule="evenodd" clip-rule="evenodd" d="M19.368 44.6733C19.5807 44.2989 20.0543 44.1692 20.4258 44.3835L39.6098 55.4506C39.851 55.5898 39.9997 55.8484 39.9998 56.1284C39.9998 56.4084 39.851 56.667 39.6099 56.8062L20.4259 67.8772C20.1877 68.0147 19.8951 68.015 19.6567 67.8779L0.391251 56.8069C0.0193918 56.5932 -0.110139 56.1162 0.101935 55.7415C0.314009 55.3668 0.78738 55.2363 1.15924 55.45L20.0398 66.2999L37.6648 56.1286L19.6555 45.7391C19.284 45.5248 19.1553 45.0476 19.368 44.6733Z" fill="#EF4545"/>
<path fill-rule="evenodd" clip-rule="evenodd" d="M0.775112 11.0125C1.20319 11.0125 1.55022 11.3621 1.55022 11.7935V56.1714C1.55022 56.6027 1.20319 56.9524 0.775112 56.9524C0.347029 56.9524 0 56.6027 0 56.1714V11.7935C0 11.3621 0.347029 11.0125 0.775112 11.0125Z" fill="#EF4545"/>
<path fill-rule="evenodd" clip-rule="evenodd" d="M20.0446 22.1382C20.4727 22.1382 20.8198 22.4879 20.8198 22.9192V67.219C20.8198 67.6503 20.4727 68 20.0446 68C19.6166 68 19.2695 67.6503 19.2695 67.219V22.9192C19.2695 22.4879 19.6166 22.1382 20.0446 22.1382Z" fill="#EF4545"/>
</svg>
